<svg width="197" height="77" viewBox="0 0 197 77" fill="none" xmlns="http://www.w3.org/2000/svg">
<path d="M73.6916 -0.000729988C71.787 0.0268227 70.1474 1.50089 68.6279 2.86061C66.636 4.64465 19.1652 48.4726 19.1652 48.4726L27.7116 13.6461C28.9349 8.42349 25.7566 5.66823 20.1837 3.77398L30.565 3.60178C31.1766 3.60178 31.72 3.60178 32.1282 3.08517L33.8279 0.960858C34.2348 0.444245 33.9631 0.215558 33.3514 0.215558H9.44746C8.08768 0.215558 6.86443 0.444245 5.84596 1.0752C3.94145 2.45421 2.24309 4.34846 0 6.70145L0.611627 7.04724C2.78645 5.15299 4.00971 4.11839 7.61121 4.00543L16.6505 3.83184C21.4752 3.7175 21.5435 7.56247 20.7271 11.351L13.2524 52.8356C13.1159 53.4101 13.4558 53.7545 14.2026 53.7545H14.4743C15.0176 53.7545 15.4245 53.6388 15.7658 53.2944C15.7658 53.2944 69.4675 8.57916 71.8526 6.28954C72.4628 6.71798 73.226 6.97285 74.0684 6.97285C76.1108 6.97285 77.7108 5.48914 77.7108 3.59351C77.7108 2.55202 77.2521 1.63727 76.4876 1.0201C75.5333 0.30786 74.6404 0.0102911 73.8008 -0.00210762H73.6916V-0.000729988Z" fill="#CCC0A6"/>
<path d="M68.7397 16.9738V17.6778C71.4047 18.6958 72.2935 16.38 72.2935 22.8039V40.8248C72.2935 48.0325 71.2272 49.3661 68.7397 49.913V50.7754H80.4658V49.913C77.9783 49.3661 76.9121 48.0325 76.9121 40.8248V11.5225L76.2909 11.0527L68.7411 16.9738H68.7397Z" fill="#CCC0A6"/>
<path d="M88.7257 21.4732C88.7257 28.7581 95.1218 30.4815 102.494 32.6761C108.444 34.478 116.527 36.0444 116.527 42.3925C116.527 47.7198 111.909 50.3056 106.313 50.3056C98.1404 50.3056 91.8344 46.5447 88.282 39.1799L87.5693 39.3369L88.1919 48.1111C90.6794 49.5217 96.7192 51.6378 104.535 51.5593C112.885 51.4807 119.902 47.1729 119.902 39.8067C119.902 32.4405 111.286 30.4829 104.89 28.6809C99.0292 27.036 92.0105 24.8428 92.0105 19.2014C92.0105 14.5781 96.1854 11.9937 102.669 11.9937C108.797 11.9937 114.66 15.0506 117.325 20.8477L118.035 20.6907L117.681 13.3272C115.194 12.3863 110.309 11.0541 103.735 11.0541C95.3853 11.0541 88.723 15.0493 88.723 21.4745" fill="#CCC0A6"/>
<path d="M135.003 2.747L125.676 11.5997V12.5392H131.362V41.059C131.362 48.8935 135.004 51.5565 140.156 51.5565C145.307 51.5565 149.836 47.9512 152.59 45.0541L151.88 44.4273C148.949 47.4043 145.752 48.7365 142.643 48.7365C138.912 48.7365 135.981 46.7775 135.981 40.9019V12.5406H148.77L149.303 11.601H135.979V2.747H135.003Z" fill="#CCC0A6"/>
<path d="M160.939 39.7282C160.85 33.3814 166.625 30.797 175.951 28.6024L188.83 25.6253V28.3682C188.742 37.7692 181.369 48.111 170.977 48.111C164.849 48.111 161.03 44.7427 160.94 39.7282M159.253 19.9054L160.051 20.4551C164.315 15.5976 169.822 13.0903 175.507 13.0903C184.034 13.0903 188.208 17.0854 188.742 24.6858L175.596 27.7414C165.381 30.093 156.055 33.0687 156.055 41.2959C156.055 48.1896 162.272 51.5593 168.935 51.5593C177.285 51.5593 185.811 44.43 188.83 34.2452V49.2104C188.83 50.2271 189.453 50.7768 190.607 50.7768H197.001V49.9144C194.514 49.3661 193.448 48.0339 193.448 40.8261V24.5287C193.448 16.4586 188.652 11.0541 177.904 11.0541C170.532 11.0541 164.404 14.1083 159.251 19.9054" fill="#CCC0A6"/>
<path d="M27.0442 73.6496C27.0442 74.8853 26.7753 76.2065 25.2585 76.2065C24.7493 76.2065 24.3028 76.1541 23.9492 76.088V76.8678C24.2154 76.9339 24.6127 76.9876 25.1629 76.9876C27.1835 76.9876 27.8647 75.7574 27.8647 73.6083V67.3139H27.0429V73.6496H27.0442Z" fill="#CCC0A6"/>
<path d="M34.5433 72.7748C35.615 70.3033 36.3345 68.5827 36.5188 68.0082H36.5325C36.7441 68.6088 37.3462 69.9203 38.6391 72.7748H34.5433ZM36.1038 67.3139L31.9248 76.8002H32.7999L34.2211 73.5421H38.9626L40.4371 76.8002H41.3395L37.0158 67.3139H36.1024H36.1038Z" fill="#CCC0A6"/>
<path d="M42.9668 67.3139V68.0812H46.698V76.8002H47.5322V68.0812H51.262V67.3139H42.9668Z" fill="#CCC0A6"/>
<path d="M55.6049 72.7748C56.6766 70.3033 57.3961 68.5827 57.5804 68.0082H57.594C57.8056 68.6088 58.4077 69.9204 59.7006 72.7748H55.6049ZM57.1653 67.3139L52.9863 76.8002H53.8614L55.2827 73.5422H60.0241L61.4986 76.8002H62.401L58.0773 67.3139H57.164H57.1653Z" fill="#CCC0A6"/>
<path d="M66.6756 66.384H67.5971L70.0559 64.5366H68.9132L66.6756 66.384Z" fill="#CCC0A6"/>
<path d="M67.5603 67.3139H66.7384V76.8002H67.5603V67.3139Z" fill="#CCC0A6"/>
<path d="M83.5211 71.7182H80.4288V68.0785H83.5852C85.1798 68.0785 86.0277 68.6474 86.0277 69.8336C86.0277 71.1382 85.1798 71.7182 83.5197 71.7182M86.8768 69.8156C86.8768 68.1033 85.5607 67.3125 83.7627 67.3125H79.6069V76.7989H80.4274V72.4827H83.3682C85.1635 72.4827 85.801 72.9456 85.801 74.5795V74.8977C85.801 75.5824 85.7642 76.3883 85.8952 76.7989H86.7321C86.6256 76.4255 86.6256 75.5907 86.6256 74.822V74.4362C86.6256 72.801 85.8556 72.272 85.1129 72.0874C86.384 71.7815 86.8755 70.9205 86.8755 69.8156" fill="#CCC0A6"/>
<path d="M92.0417 67.3139V76.8002H99.1546L99.2884 76.0467H92.8636V72.1645H98.7109V71.4096H92.8636V68.0688H99.0126V67.3139H92.0417Z" fill="#CCC0A6"/>
<path d="M116.744 67.3139H115.922V76.8002H116.744V67.3139Z" fill="#CCC0A6"/>
<path d="M107.226 71.4082C104.894 71.0238 104.512 70.4204 104.512 69.5236C104.512 68.3926 105.555 67.8649 107.047 67.8649C109.257 67.8649 109.702 68.8403 109.925 69.5801H110.773C110.668 68.697 110.03 67.1155 107.062 67.1155C105.108 67.1155 103.664 68.0592 103.664 69.6076C103.664 70.9095 104.385 71.7127 106.98 72.1535C109.638 72.6026 110.202 73.2873 110.202 74.3673C110.202 75.4474 109.342 76.2616 107.287 76.2616C105.233 76.2616 104.393 75.3537 104.013 74.0877H103.153C103.469 75.8538 104.798 77 107.259 77C109.915 77 111.064 75.7243 111.064 74.2847C111.064 73.0062 110.524 71.9565 107.226 71.4096" fill="#CCC0A6"/>
<path d="M125.666 76.0467H123.093V68.0661H125.808C128.143 68.0661 129.811 69.5071 129.811 71.9372C129.811 74.191 128.502 76.0467 125.668 76.0467M125.933 67.3139H122.272V76.8002H125.919C128.618 76.8002 130.688 74.9528 130.688 71.911C130.688 69.2701 128.899 67.3139 125.931 67.3139" fill="#CCC0A6"/>
<path d="M135.534 67.3139V76.8002H142.648L142.782 76.0467H136.356V72.1645H142.203V71.4096H136.356V68.0688H142.506V67.3139H135.534Z" fill="#CCC0A6"/>
<path d="M154.847 71.5377C154.847 73.0669 154.833 74.4169 154.912 75.778H154.887C154.384 74.8826 150.316 69.7027 148.479 67.3139H147.481V76.8002H148.273V72.4717C148.273 70.7979 148.273 69.4561 148.206 68.2079H148.234C148.967 69.3238 153.012 74.6511 154.682 76.8002H155.637V67.3139H154.846V71.5377H154.847Z" fill="#CCC0A6"/>
<path d="M165.309 67.8814C167.288 67.8814 168.176 68.8238 168.696 70.0581H169.557C169.139 68.5152 167.949 67.1155 165.322 67.1155C162.481 67.1155 160.549 69.299 160.549 72.0846C160.549 74.8702 162.285 77 165.281 77C167.819 77 168.929 75.7587 169.518 74.1483H168.682C168.095 75.3386 167.322 76.234 165.322 76.234C162.963 76.234 161.426 74.4211 161.426 72.0557C161.426 69.6903 162.94 67.8801 165.31 67.8801" fill="#CCC0A6"/>
<path d="M174.261 67.3139V76.8002H181.373L181.507 76.0467H175.082V72.1645H180.928V71.4096H175.082V68.0688H181.23V67.3139H174.261Z" fill="#CCC0A6"/>
</svg>
