<svg width="41" height="59" viewBox="0 0 41 59" fill="none" xmlns="http://www.w3.org/2000/svg">
<path d="M20.4791 27.0062C16.9226 27.0062 14.0401 24.0869 14.0401 20.4856C14.0401 16.8843 16.9226 13.9631 20.4791 13.9631C24.0355 13.9631 26.918 16.8843 26.918 20.4856C26.918 24.0869 24.0355 27.0062 20.4791 27.0062ZM21.0083 2C22.0802 2 23.1502 2.10819 24.2011 2.32458C32.8105 4.11363 38.9924 11.7838 39 20.6826C38.9924 27.265 35.5026 34.7574 31.5006 41.2471C27.493 47.7348 22.9541 53.2044 20.7837 55.6619L20.4867 56L20.1801 55.6696C17.9735 53.2894 13.4423 48.0768 9.45369 41.6876C5.46506 35.2965 2.00571 27.7307 2 20.5899C2 20.4315 2 20.2731 2.00571 20.1146V20.1088C2.05521 15.244 4.16662 10.6381 7.80303 7.45796L7.81064 7.45023C7.81064 7.45023 7.81254 7.44637 7.81445 7.44444C11.3442 4.10977 16.1839 2.15649 21.0083 2Z" stroke="#F3ECE2" stroke-width="3" stroke-miterlimit="10"/>
</svg>
