<svg width="27" height="25" viewBox="0 0 27 25" fill="none" xmlns="http://www.w3.org/2000/svg">
<g clip-path="url(#clip0_11_2)">
<path d="M12.074 22.1566C11.8477 23.0852 11.2918 23.7722 10.3844 24.1979C9.23084 24.7365 8.05534 24.7187 6.96332 24.087C5.82956 23.4376 5.33519 22.4536 5.41869 21.2458C5.43846 21.0418 5.37694 20.9666 5.19237 20.8735C3.19291 19.9271 1.60872 18.6085 0.516711 16.8265C0.310173 16.474 0.145382 16.1018 0.0421134 15.7118C-0.102902 15.1732 0.125607 14.9138 0.743023 14.8584C1.48568 14.7831 2.14484 14.5238 2.47442 13.8922C2.61944 13.613 2.70074 13.2803 2.70074 12.9635C2.74248 12.1656 2.70074 11.3677 2.74248 10.5678C2.9688 7.48495 4.39039 4.92484 6.98749 2.91913C9.37586 1.06587 12.1773 0.194681 15.3281 0.28576C20.8299 0.471878 25.5473 3.96257 26.6591 8.84519C27.6676 13.2645 26.145 16.9591 22.2493 19.836C22.023 20.0024 21.7747 20.1707 21.5067 20.3192C21.3616 20.4122 21.3221 20.4855 21.3836 20.634C21.8978 22.0457 21.1771 23.6039 19.7357 24.2732C17.778 25.1463 15.5127 24.2553 14.915 22.3605C14.8953 22.2853 14.792 22.1942 14.7305 22.1942C13.867 22.1388 12.9793 22.1566 12.074 22.1566ZM12.1158 20.9131C13.043 20.9131 13.9702 20.9508 14.8975 20.8953C15.7412 20.8577 16.6289 20.7844 17.4528 20.5983C24.0049 19.151 27.5072 12.6329 24.6421 7.12064C22.9107 3.79626 19.9444 1.90142 15.8862 1.51137C12.7749 1.21437 9.99328 2.04992 7.64446 3.94278C5.33739 5.81781 4.14211 8.15616 4.06081 10.9598C4.04104 11.6092 4.06081 12.2785 4.06081 12.9279C4.03884 14.3416 3.15336 15.4365 1.64827 15.8622C1.6285 15.8622 1.58675 15.8998 1.56478 15.8998C2.14265 17.274 4.48927 19.2975 5.95261 19.7984C7.78948 17.5333 11.4962 18.3332 12.1158 20.9131Z" fill="#322939"/>
<path d="M16.462 16.0684C14.0297 15.9575 12.4235 15.0843 11.393 13.34C11.1447 12.9123 11.3733 12.4866 11.8457 12.3935C12.1335 12.3381 12.4016 12.5242 12.6081 12.8212C12.8762 13.1934 13.1442 13.5637 13.4936 13.8607C15.4293 15.512 18.6021 14.9932 19.8193 12.8588C19.9643 12.5995 20.1489 12.3955 20.4983 12.3955C21.0124 12.4133 21.3025 12.8786 21.0761 13.3043C20.4368 14.4745 19.4282 15.3279 18.0682 15.7357C17.4705 15.9199 16.8531 15.9931 16.462 16.0684Z" fill="#322939"/>
<path d="M12.1555 9.97802C11.4128 9.97802 10.8174 9.43946 10.8174 8.77221C10.8174 8.10496 11.415 7.56641 12.1555 7.56641C12.8959 7.56641 13.4936 8.10496 13.4936 8.77221C13.4958 9.42164 12.8981 9.97802 12.1555 9.97802Z" fill="#322939"/>
<path d="M21.5925 8.7517C21.5925 9.42094 20.9948 9.95751 20.2741 9.97731C19.5315 9.97731 18.936 9.45657 18.936 8.7715C18.936 8.10227 19.5139 7.5657 20.2544 7.5459C20.975 7.5459 21.5705 8.08445 21.5925 8.7517Z" fill="#322939"/>
</g>
<defs>
<clipPath id="clip0_11_2">
<rect width="27" height="25" fill="white"/>
</clipPath>
</defs>
</svg>
